<?xml version="1.0" encoding="UTF-8"?>
<svg width="126px" height="108px" viewBox="0 0 126 108" version="1.1" xmlns="http://www.w3.org/2000/svg" xmlns:xlink="http://www.w3.org/1999/xlink">
    <!-- Generator: Sketch 3.8.3 (29802) - http://www.bohemiancoding.com/sketch -->
    <title>shopping-cart</title>
    <desc>Created with Sketch.</desc>
    <defs></defs>
    <g id="Page-1" stroke="none" stroke-width="1" fill="none" fill-rule="evenodd">
        <g id="shopping-cart" transform="translate(0.000000, -3.000000)">
            <g id="add-shopping-cart" transform="translate(24.000000, 0.000000)">
                <g id="Group">
                    <path d="M0,0 L80,0 L80,80 L0,80 L0,0 Z M61.0333333,20 L51.8333333,36.6666667 L61.0333333,20 Z" id="Shape"></path>
                    <path d="M36.6666667,30 L43.3333333,30 L43.3333333,20 L53.3333333,20 L53.3333333,13.3333333 L43.3333333,13.3333333 L43.3333333,3.33333333 L36.6666667,3.33333333 L36.6666667,13.3333333 L26.6666667,13.3333333 L26.6666667,20 L36.6666667,20 L36.6666667,30 L36.6666667,30 Z M23.3333333,60 C19.6666667,60 16.7,63 16.7,66.6666667 C16.7,70.3333333 19.6666667,73.3333333 23.3333333,73.3333333 C27,73.3333333 30,70.3333333 30,66.6666667 C30,63 27,60 23.3333333,60 L23.3333333,60 Z M56.6666667,60 C53,60 50.0333333,63 50.0333333,66.6666667 C50.0333333,70.3333333 53,73.3333333 56.6666667,73.3333333 C60.3333333,73.3333333 63.3333333,70.3333333 63.3333333,66.6666667 C63.3333333,63 60.3333333,60 56.6666667,60 L56.6666667,60 Z M23.9,49.1666667 L24,48.7666667 L27,43.3333333 L51.8333333,43.3333333 C54.3333333,43.3333333 56.5333333,41.9666667 57.6666667,39.9 L70.5333333,16.5333333 L64.7333333,13.3333333 L64.7,13.3333333 L61.0333333,20 L51.8333333,36.6666667 L28.4333333,36.6666667 L28,35.7666667 L20.5333333,20 L17.3666667,13.3333333 L14.2333333,6.66666667 L3.33333333,6.66666667 L3.33333333,13.3333333 L10,13.3333333 L22,38.6333333 L17.5,46.8 C16.9666667,47.7333333 16.6666667,48.8333333 16.6666667,50 C16.6666667,53.6666667 19.6666667,56.6666667 23.3333333,56.6666667 L63.3333333,56.6666667 L63.3333333,50 L24.7333333,50 C24.3,50 23.9,49.6333333 23.9,49.1666667 L23.9,49.1666667 Z" id="Shape" fill="#FFFFFF"></path>
                </g>
            </g>
            <text id="Add-Items" font-family="OpenSans-Light, Open Sans" font-size="28" font-weight="300" fill="#FFFFFF">
                <tspan x="0" y="110">Add Items</tspan>
            </text>
        </g>
    </g>
</svg>