<?xml version="1.0" encoding="UTF-8"?>
<svg width="74px" height="48px" viewBox="0 0 74 48" version="1.1" xmlns="http://www.w3.org/2000/svg" xmlns:xlink="http://www.w3.org/1999/xlink">
    <!-- Generator: Sketch 3.8.3 (29802) - http://www.bohemiancoding.com/sketch -->
    <title>stuff icon</title>
    <desc>Created with Sketch.</desc>
    <defs>
        <polygon id="path-1" points="0 0 80 0 80 80 0 80"></polygon>
    </defs>
    <g id="Page-1" stroke="none" stroke-width="1" fill="none" fill-rule="evenodd">
        <g id="stuff-icon" transform="translate(-3.000000, -16.000000)">
            <g id="Clipped">
                <mask id="mask-2" fill="white">
                    <use xlink:href="#path-1"></use>
                </mask>
                <g id="a"></g>
                <path d="M70,33.3333333 C66.3333333,33.3333333 63.3333333,36.3333333 63.3333333,40 L63.3333333,50 L16.6666667,50 L16.6666667,40 C16.6666667,36.3333333 13.6666667,33.3333333 10,33.3333333 C6.33333333,33.3333333 3.33333333,36.3333333 3.33333333,40 L3.33333333,56.6666667 C3.33333333,60.3333333 6.33333333,63.3333333 10,63.3333333 L70,63.3333333 C73.6666667,63.3333333 76.6666667,60.3333333 76.6666667,56.6666667 L76.6666667,40 C76.6666667,36.3333333 73.6666667,33.3333333 70,33.3333333 L70,33.3333333 Z M60,16.6666667 L20,16.6666667 C16.3333333,16.6666667 13.3333333,19.6666667 13.3333333,23.3333333 L13.3333333,30.5 C17.2,31.8666667 20,35.5333333 20,39.9 L20,46.6666667 L60,46.6666667 L60,39.9 C60,35.5666667 62.8,31.9 66.6666667,30.5 L66.6666667,23.3333333 C66.6666667,19.6666667 63.6666667,16.6666667 60,16.6666667 L60,16.6666667 Z" id="Shape" fill="#AFBECA" mask="url(#mask-2)"></path>
            </g>
        </g>
    </g>
</svg>